<svg width="167" height="145" viewBox="0 0 167 145" fill="none" xmlns="http://www.w3.org/2000/svg">
<g filter="url(#filter0_d_53_449)">
<path d="M131.516 64.6562C129.756 47.1642 115.592 31.8586 99.1469 23.8819C82.3819 15.7838 63.2563 17.9703 48.572 27.4046C33.9277 36.839 24.645 54.2501 24.885 71.8231C25.1251 89.8821 36.0883 107.9 52.7732 114.298C60.4955 117.254 69.4181 117.618 76.8603 114.055C83.7823 110.735 89.0639 103.932 90.2642 96.2796C91.4646 88.6268 88.4237 80.3667 82.3019 75.6698C76.9403 71.5397 69.018 70.4869 63.3363 74.1311C56.7344 78.3826 54.9739 88.7078 59.7753 94.9839C64.6167 101.219 74.9397 101.989 80.6214 96.5226C76.2601 103.204 66.2172 104.904 59.6152 100.491C53.0133 96.0772 50.4525 86.7238 53.2534 79.233C56.0542 71.7421 63.6164 66.5593 71.4987 65.9115C76.5802 65.5066 81.7417 66.8427 85.983 69.6366C93.3051 74.455 97.3063 82.9176 101.428 90.7324C105.549 98.5471 112.471 110.127 120.713 113.083C114.711 102.515 113.991 85.671 109.03 74.5765C105.269 66.1544 97.9865 59.3519 89.384 56.2746C80.7814 53.1568 70.8985 53.7642 62.7362 57.9348C55.6541 61.498 49.8123 67.774 47.4517 75.4268C45.091 83.0391 46.4914 91.9471 51.6529 97.9802C47.7317 95.7127 45.371 91.3802 44.2507 86.9262C40.8097 73.5237 47.4917 58.4207 59.1351 51.1728C70.7785 43.8844 86.3831 44.2893 98.2666 51.1728C110.15 58.0562 118.232 70.8109 120.633 84.4563C121.954 91.8256 121.753 99.5189 124.354 106.483C126.995 113.448 133.757 119.764 140.999 118.347C145.44 117.497 149.042 113.812 150.482 109.48C150.842 115.148 145.761 119.805 140.439 121.586C132.837 124.137 124.314 122.72 117.232 118.995C110.15 115.27 104.348 109.399 99.4269 103.001C96.146 112.435 88.0236 119.805 78.6608 123.004C69.2981 126.202 58.815 125.393 49.6123 121.748C34.8079 115.837 23.2845 102.475 18.7632 87.0072C9.48049 55.2219 29.6864 19.3065 62.296 13.0304C77.7806 10.0341 95.0256 13.6378 107.789 22.9911C120.953 32.6685 130.916 48.8243 131.516 64.7777V64.6562Z" fill="#5D5B58"/>
</g>
<defs>
<filter id="filter0_d_53_449" x="0.5" y="0" width="166" height="145" filterUnits="userSpaceOnUse" color-interpolation-filters="sRGB">
<feFlood flood-opacity="0" result="BackgroundImageFix"/>
<feColorMatrix in="SourceAlpha" type="matrix" values="0 0 0 0 0 0 0 0 0 0 0 0 0 0 0 0 0 0 127 0" result="hardAlpha"/>
<feOffset dy="4"/>
<feGaussianBlur stdDeviation="8"/>
<feComposite in2="hardAlpha" operator="out"/>
<feColorMatrix type="matrix" values="0 0 0 0 0 0 0 0 0 0 0 0 0 0 0 0 0 0 0.12 0"/>
<feBlend mode="normal" in2="BackgroundImageFix" result="effect1_dropShadow_53_449"/>
<feBlend mode="normal" in="SourceGraphic" in2="effect1_dropShadow_53_449" result="shape"/>
</filter>
</defs>
</svg>
