<svg width="327" height="97" viewBox="0 0 327 97" fill="none" xmlns="http://www.w3.org/2000/svg">
<path d="M299.585 54.8789H270.208L267.015 64.5804C266.513 66.2658 266.194 67.7868 266.102 69.2256C266.011 70.6644 266.239 71.9387 266.832 73.0075C267.425 74.1174 268.429 74.9396 269.752 75.5562C271.12 76.1728 272.991 76.4606 275.408 76.4606V77.6938H250V76.4606C252.418 76.4606 254.425 76.1728 256.067 75.5562C257.709 74.9396 259.078 74.1174 260.172 73.0075C261.267 71.9387 262.179 70.6644 262.909 69.2256C263.639 67.7868 264.278 66.2247 264.825 64.5804L282.433 13.3189C282.023 12.2913 281.475 11.1813 280.837 9.9481C280.198 8.71486 279.468 7.60496 278.601 6.53615C277.735 5.46735 276.777 4.56296 275.682 3.82302C274.587 3.08308 273.355 2.71313 271.987 2.71313C270.618 2.71313 269.889 2.91866 268.657 3.28863C267.425 3.6586 266.422 4.15189 265.555 4.7274L264.825 3.65861C266.604 2.50759 268.611 1.6032 270.801 0.945475C272.991 0.28775 275.134 0 277.187 0C279.24 0 281.703 0.369985 283.209 1.06882C284.759 1.76765 285.991 2.71312 286.949 3.90524C287.907 5.09737 288.728 6.49504 289.367 8.09825C290.005 9.70145 290.735 11.3869 291.511 13.1956L305.697 46.5752C306.245 47.8084 306.929 49.4116 307.659 51.3848C308.389 53.358 309.255 55.4545 310.213 57.6743C311.171 59.8941 312.22 62.1139 313.361 64.3749C314.501 66.6358 315.687 68.6501 317.01 70.4177C318.287 72.2264 319.656 73.7064 321.07 74.8574C322.484 76.0084 323.989 76.5839 325.54 76.5839C327.091 76.5839 326.407 76.5839 326.589 76.5017L327 77.7349C324.674 78.3926 322.302 78.6804 319.975 78.6804C317.649 78.6804 316.417 78.516 315.14 78.146C313.817 77.776 312.585 77.1594 311.445 76.255C309.803 74.9807 308.206 73.0486 306.61 70.541C305.013 67.9924 303.28 64.3749 301.455 59.6063L299.539 54.7967L299.585 54.8789ZM298.809 53.2346L283.665 16.1143L270.755 53.2346H298.809Z" fill="#5D5B58"/>
<path d="M199.57 56.2871V56.1225C199.616 56.1225 200.249 54.1887 200.249 54.1887L200.792 52.584L201.335 50.9793L213.418 15.8822L227.672 51.0616L228.984 54.1887L229.618 55.7522L230.885 58.9204C232.695 63.611 234.369 67.2318 235.953 69.7417C237.537 72.2516 239.121 74.1442 240.705 75.4198C241.836 76.2838 243.013 76.901 244.325 77.2713C245.592 77.6005 247.176 77.8062 249.076 77.8062C250.977 77.8062 253.692 77.477 256 76.8598L255.593 75.6255C255.366 75.7078 255.05 75.7489 254.552 75.7489C253.013 75.7489 251.565 75.1729 250.162 74.0208C248.76 72.8687 247.447 71.4286 246.18 69.6594C244.913 67.8901 243.737 65.874 242.605 63.6521C241.474 61.4303 240.433 59.2496 239.528 57.0277C238.578 54.847 237.763 52.7486 236.994 50.8147C236.27 48.8397 235.637 47.2762 235.048 46.0419L221.156 13.0431C220.386 11.2739 219.662 9.58692 219.074 7.98224C218.441 6.37757 217.671 5.01975 216.721 3.82653C215.771 2.67445 214.549 1.72811 213.056 1.02864C211.562 0.329164 209.571 0 207.128 0C204.684 0 203.01 0.329159 200.838 0.946342C198.665 1.60467 196.72 2.46873 195 3.6208L195.724 4.64944C196.584 4.0734 197.579 3.6208 198.756 3.20935C199.932 2.83904 201.019 2.63332 202.014 2.63332C203.01 2.63332 204.548 3.00362 205.634 3.7031C206.72 4.44372 207.671 5.30777 208.485 6.37756C209.3 7.4062 210.069 8.55828 210.657 9.7515C211.291 10.9447 211.834 12.0556 212.241 13.0843L196.855 58.2209L199.525 56.2871H199.57Z" fill="#5D5B58"/>
<path d="M217.635 75.6255C217.408 75.7078 217.089 75.7489 216.588 75.7489C215.038 75.7489 213.58 75.1729 212.168 74.0208C210.755 72.8687 209.434 71.4286 208.158 69.6594C206.882 67.8901 205.698 65.874 204.559 63.6521C203.42 61.4303 202.372 59.2496 201.46 57.0277C200.504 54.847 199.683 52.7486 198.909 50.8147C198.18 48.8398 197.542 47.2762 196.95 46.0418L182.962 13.0431C182.187 11.2739 181.458 9.58689 180.866 7.98222C180.228 6.37754 179.453 5.01975 178.496 3.82653C177.54 2.67445 176.309 1.72811 174.806 1.02864C173.302 0.329164 171.297 0 168.837 0C166.376 0 164.691 0.329159 162.504 0.946342C160.317 1.60467 158.357 2.46873 156.626 3.6208L157.355 4.64944C158.221 4.0734 159.223 3.6208 160.408 3.20935C161.592 2.83904 162.686 2.6333 163.688 2.6333C164.691 2.6333 166.24 3.00362 167.333 3.7031C168.427 4.44372 169.384 5.30777 170.204 6.37756C171.024 7.4062 171.799 8.55825 172.391 9.75147C173.029 10.9447 173.576 12.0556 173.986 13.0843L156.626 63.7756C156.079 65.4214 155.441 66.9438 154.758 68.3839C154.029 69.824 153.163 71.0583 152.07 72.1281C150.976 73.1979 149.655 74.062 148.014 74.6791C146.42 75.2552 144.415 75.5843 142 75.5843V76.8187H167.06V75.5843C164.691 75.5843 162.823 75.2963 161.456 74.6791C160.134 74.062 159.177 73.2391 158.585 72.1281C157.993 71.0583 157.719 69.7828 157.856 68.3839C157.947 66.9438 158.266 65.4214 158.722 63.7756L161.182 56.2871V56.1225C161.228 56.1225 161.866 54.1887 161.866 54.1887L162.412 52.584L162.959 50.9793L175.125 15.8822L189.477 51.0616L190.799 54.1887L191.436 55.7522L192.712 58.9204C194.535 63.611 196.221 67.2318 197.815 69.7417C199.41 72.2516 201.005 74.1442 202.6 75.4198C203.739 76.2838 204.923 76.901 206.245 77.2713C207.52 77.6005 209.115 77.8062 211.029 77.8062C212.942 77.8062 215.676 77.477 218 76.8599L217.59 75.6255H217.635Z" fill="#5D5B58"/>
<path d="M118.999 93.2956C110.447 95.0386 99.1966 93.9181 91.3304 90.3907C83.4642 86.8633 76.7413 81.5099 70.7044 75.783C63.6614 69.1431 57.3502 61.8808 51.0846 54.6599C47.6089 50.6345 44.1788 46.6506 40.7488 42.6252C40.4744 42.2932 40.1543 41.9197 40.1085 41.4632C40.0628 40.4672 41.2976 39.9277 42.3037 39.6372C48.0662 37.8943 53.6457 35.1138 57.2587 30.6734C60.643 26.5235 61.9235 21.0041 60.7802 15.9412C59.6369 10.8783 55.9782 6.31342 51.0846 3.74047C46.2826 1.20903 40.5659 0.545028 35.0321 0.254534C28.0348 -0.118958 21.0375 0.00555474 14.0403 0.088553C11.7536 0.088553 9.42116 0.171546 7.13447 0.213045C5.99113 0.213045 4.84778 0.213035 3.70444 0.254534C3.1099 0.254534 2.56109 0.254534 1.96655 0.254534C1.37201 0.254534 1.09761 0.213056 0.960412 0.586548C0.68601 1.33353 2.51536 1.62401 3.01843 1.707C4.02458 1.9145 5.03072 1.99752 5.94539 2.45401C8.27781 3.61599 8.59796 6.5209 8.59796 8.96935C8.59796 27.6025 8.64369 46.2356 8.68942 64.9102C8.68942 68.2301 7.95768 78.8124 4.39045 79.6424C2.6983 80.0159 0.137201 79.9329 0 81.5099C9.42116 81.5099 18.7966 81.5099 28.2177 81.5099C27.1201 79.4764 23.6444 80.1404 21.5864 78.8539C19.7113 77.6919 19.4826 68.9771 19.4826 66.9022C19.4369 59.3908 19.3454 51.921 19.2997 44.4096C19.2997 43.8286 19.2997 43.1647 19.6198 42.6667C20.0314 42.0027 20.9003 41.6707 21.7235 41.5462C24.8334 41.0067 28.0348 42.2102 30.4587 44.0776C32.8826 45.9451 34.6205 48.3935 36.3584 50.759C45.185 62.8768 54.972 74.704 67.7317 83.4603C80.4915 92.2166 96.6355 97.6945 112.505 95.7856C119.868 94.8726 129.198 92.1751 134 87.0293C132.582 87.7762 127.552 91.5942 118.954 93.3371L118.999 93.2956ZM22.2724 40.3012C20.0771 40.4672 19.2082 39.7202 19.2539 37.6453C19.3454 32.0429 19.2539 26.482 19.2539 20.8796H19.3454C19.3454 15.6092 19.4369 10.3803 19.3454 5.10994C19.2997 2.70299 20.0314 1.58251 22.8669 1.79001C26.2969 2.039 29.7727 1.79002 33.2027 2.16351C41.6635 3.03499 47.3345 7.84889 49.1638 15.4432C50.1242 19.4272 50.0785 23.4526 48.9352 27.395C46.7857 34.8648 40.7488 38.2678 32.9741 39.5127C29.4983 40.0937 25.8853 40.0107 22.3181 40.2597L22.2724 40.3012Z" fill="#5D5B58"/>
<path d="M77 38.5122C77 19.215 87.9848 0 110.456 0C132.927 0 143 19.0915 143 38.3888C143 57.686 132.015 77.8062 110.456 77.8062C88.8964 77.8062 77 58.0975 77 38.5122ZM135.388 40.0757C135.388 20.8196 126.682 1.15207 110.41 1.15207C94.1381 1.15207 85.5235 20.8196 85.5235 40.0757C85.5235 59.3318 93.4088 76.5307 110.41 76.5307C127.412 76.5307 135.388 58.5501 135.388 40.0757Z" fill="#5D5B58"/>
</svg>
