<svg width="202" height="45" viewBox="0 0 202 45" fill="none" xmlns="http://www.w3.org/2000/svg">
<path d="M47.1332 20.9693C46.4118 14.0034 40.6073 7.90831 33.8683 4.73175C26.9981 1.50681 19.1605 2.37754 13.143 6.13459C7.14179 9.89164 3.33777 16.8253 3.43615 23.8234C3.53453 31.015 8.02721 38.1905 14.8646 40.7382C18.0292 41.9153 21.6856 42.0604 24.7354 40.6414C27.572 39.3192 29.7364 36.6102 30.2283 33.5627C30.7202 30.5151 29.474 27.2257 26.9653 25.3552C24.7682 23.7105 21.5217 23.2913 19.1933 24.7425C16.4879 26.4356 15.7664 30.5474 17.734 33.0467C19.718 35.5299 23.9484 35.8363 26.2767 33.6594C24.4894 36.32 20.3739 36.9972 17.6684 35.2396C14.963 33.4821 13.9136 29.7573 15.0614 26.7742C16.2091 23.7911 19.3081 21.7272 22.5382 21.4692C24.6206 21.3079 26.7358 21.84 28.4738 22.9526C31.4744 24.8715 33.1141 28.2415 34.8029 31.3536C36.4918 34.4657 39.3284 39.0773 42.7061 40.2544C40.2466 36.0459 39.9515 29.338 37.9183 24.9198C36.377 21.5659 33.3928 18.857 29.8675 17.6315C26.3423 16.3899 22.2923 16.6318 18.9474 18.2926C16.0452 19.7116 13.6513 22.2109 12.6839 25.2585C11.7165 28.2899 12.2903 31.8373 14.4055 34.2399C12.7986 33.3369 11.8312 31.6116 11.3721 29.8379C9.96201 24.5006 12.7003 18.4861 17.4717 15.5998C22.2431 12.6973 28.6378 12.8586 33.5076 15.5998C38.3774 18.341 41.6895 23.4203 42.6733 28.8543C43.2144 31.789 43.1324 34.8526 44.1982 37.6261C45.2804 40.3995 48.0514 42.915 51.0192 42.3506C52.8392 42.012 54.3149 40.5447 54.9052 38.8193C55.0528 41.0768 52.9704 42.9311 50.7897 43.6406C47.6743 44.6565 44.1818 44.0921 41.2796 42.6086C38.3774 41.1252 35.9999 38.7871 33.9831 36.2394C32.6386 39.9964 29.3101 42.9311 25.4732 44.205C21.6364 45.4788 17.3405 45.1563 13.5693 43.7051C7.50252 41.3509 2.78028 36.0298 0.927458 29.8701C-2.87656 17.2123 5.40374 2.90966 18.767 0.410333C25.1125 -0.782894 32.1795 0.652204 37.41 4.37701C42.8045 8.2308 46.8873 14.6645 47.1332 21.0177V20.9693Z" fill="black"/>
<path d="M190.828 25.9285H178.856L177.555 30.5121C177.351 31.3084 177.221 32.0271 177.183 32.7068C177.146 33.3866 177.239 33.9887 177.481 34.4937C177.722 35.0181 178.131 35.4065 178.67 35.6978C179.228 35.9892 179.99 36.1251 180.976 36.1251V36.7078H170.621V36.1251C171.607 36.1251 172.424 35.9892 173.094 35.6978C173.763 35.4065 174.321 35.0181 174.767 34.4937C175.213 33.9887 175.585 33.3866 175.882 32.7068C176.18 32.0271 176.44 31.289 176.663 30.5121L183.838 6.29277C183.671 5.80721 183.448 5.28281 183.188 4.70015C182.927 4.11749 182.63 3.59309 182.277 3.08812C181.924 2.58314 181.533 2.15585 181.087 1.80625C180.641 1.45666 180.139 1.28187 179.581 1.28187C179.024 1.28187 178.726 1.37897 178.224 1.55377C177.722 1.72857 177.313 1.96163 176.96 2.23354L176.663 1.72857C177.388 1.18475 178.206 0.75746 179.098 0.446706C179.99 0.135952 180.864 0 181.701 0C182.537 0 183.541 0.174806 184.154 0.504982C184.786 0.835158 185.288 1.28186 185.679 1.8451C186.069 2.40834 186.404 3.06869 186.664 3.82616C186.924 4.58362 187.222 5.37993 187.538 6.2345L193.319 22.0052C193.542 22.5879 193.821 23.3454 194.118 24.2776C194.416 25.2099 194.769 26.2004 195.159 27.2492C195.55 28.298 195.977 29.3468 196.442 30.415C196.907 31.4832 197.39 32.4349 197.929 33.2701C198.449 34.1246 199.007 34.8238 199.583 35.3677C200.16 35.9115 200.773 36.1834 201.405 36.1834C202.037 36.1834 201.758 36.1834 201.833 36.1445L202 36.7272C201.052 37.038 200.085 37.1739 199.137 37.1739C198.189 37.1739 197.687 37.0962 197.167 36.9214C196.628 36.7466 196.126 36.4553 195.661 36.028C194.992 35.4259 194.341 34.5131 193.691 33.3283C193.04 32.1242 192.334 30.415 191.59 28.1621L190.809 25.8897V25.9285H190.828ZM190.512 25.1516L184.34 7.61347L179.079 25.1516H190.512Z" fill="black"/>
<path d="M148.998 26.8926V26.814L149.281 25.89L149.508 25.1234L149.735 24.3567L154.785 7.58811L160.743 24.396L161.291 25.89L161.556 26.637L162.086 28.1507C162.842 30.3918 163.542 32.1217 164.204 33.3209C164.866 34.52 165.528 35.4243 166.19 36.0337C166.663 36.4466 167.154 36.7414 167.703 36.9184C168.232 37.0756 168.894 37.1739 169.689 37.1739C170.483 37.1739 171.618 37.0166 172.583 36.7218L172.412 36.132C172.318 36.1713 172.185 36.191 171.977 36.191C171.334 36.191 170.729 35.9158 170.143 35.3654C169.556 34.8149 169.008 34.1269 168.478 33.2816C167.949 32.4363 167.457 31.473 166.984 30.4115C166.511 29.3499 166.076 28.308 165.698 27.2465C165.301 26.2046 164.96 25.202 164.639 24.278C164.336 23.3344 164.072 22.5874 163.826 21.9977L158.019 6.2317C157.698 5.38639 157.395 4.5804 157.149 3.81372C156.885 3.04705 156.563 2.39831 156.166 1.82822C155.769 1.27779 155.258 0.82565 154.634 0.491458C154.01 0.157267 153.177 0 152.156 0C151.135 0 150.435 0.157264 149.527 0.452139C148.619 0.766673 147.806 1.1795 147.087 1.72993L147.39 2.22139C147.749 1.94617 148.165 1.72993 148.657 1.53335C149.149 1.35642 149.603 1.25814 150.019 1.25814C150.435 1.25814 151.078 1.43506 151.532 1.76925C151.986 2.1231 152.383 2.53593 152.724 3.04704C153.064 3.5385 153.386 4.08894 153.631 4.65903C153.896 5.22912 154.123 5.75989 154.293 6.25135L147.863 27.8165L148.979 26.8926H148.998Z" fill="black"/>
<path d="M156.733 36.132C156.633 36.1713 156.493 36.191 156.274 36.191C155.594 36.191 154.954 35.9158 154.335 35.3653C153.715 34.8149 153.135 34.1269 152.576 33.2816C152.016 32.4363 151.496 31.473 150.997 30.4114C150.497 29.3499 150.037 28.308 149.638 27.2465C149.218 26.2046 148.858 25.202 148.518 24.278C148.198 23.3344 147.919 22.5874 147.659 21.9977L141.522 6.23168C141.183 5.38637 140.863 4.58039 140.603 3.81371C140.323 3.04704 139.983 2.39831 139.564 1.82822C139.144 1.27779 138.604 0.82565 137.945 0.491458C137.285 0.157267 136.406 0 135.326 0C134.247 0 133.507 0.157264 132.548 0.452139C131.588 0.766673 130.729 1.1795 129.969 1.72993L130.289 2.22139C130.669 1.94617 131.109 1.72993 131.628 1.53335C132.148 1.35642 132.628 1.25813 133.068 1.25813C133.507 1.25813 134.187 1.43506 134.667 1.76925C135.146 2.1231 135.566 2.53593 135.926 3.04704C136.286 3.5385 136.625 4.08892 136.885 4.65902C137.165 5.22911 137.405 5.75989 137.585 6.25135L129.969 30.4704C129.73 31.2568 129.45 31.9841 129.15 32.6721C128.83 33.3602 128.45 33.9499 127.971 34.4611C127.491 34.9722 126.911 35.385 126.192 35.6799C125.492 35.9551 124.613 36.1124 123.553 36.1124V36.7021H134.547V36.1124C133.507 36.1124 132.688 35.9748 132.088 35.6799C131.509 35.385 131.089 34.9918 130.829 34.4611C130.569 33.9499 130.449 33.3405 130.509 32.6721C130.549 31.9841 130.689 31.2568 130.889 30.4704L131.968 26.8926V26.814L132.268 25.89L132.508 25.1234L132.748 24.3567L138.085 7.58811L144.381 24.396L144.96 25.89L145.24 26.637L145.8 28.1507C146.599 30.3918 147.339 32.1217 148.039 33.3209C148.738 34.52 149.438 35.4243 150.137 36.0337C150.637 36.4466 151.157 36.7414 151.736 36.9184C152.296 37.0756 152.996 37.1739 153.835 37.1739C154.674 37.1739 155.874 37.0166 156.893 36.7218L156.713 36.132H156.733Z" fill="black"/>
<path d="M115.006 43.6762C111.251 44.4921 106.311 43.9676 102.857 42.3162C99.4037 40.6649 96.4519 38.1587 93.8013 35.4776C90.7089 32.3692 87.9379 28.9694 85.1869 25.5889C83.6608 23.7044 82.1548 21.8394 80.6488 19.9549C80.5283 19.7995 80.3877 19.6246 80.3677 19.4109C80.3476 18.9446 80.8897 18.6921 81.3315 18.5561C83.8616 17.7401 86.3114 16.4385 87.8977 14.3597C89.3837 12.4169 89.9459 9.83304 89.4439 7.46285C88.9419 5.09267 87.3355 2.95561 85.1869 1.75109C83.0785 0.566003 80.5685 0.255154 78.1387 0.11916C75.0665 -0.0556899 71.9942 0.00260044 68.9219 0.0414559C67.9179 0.0414559 66.8938 0.080309 65.8898 0.0997368C65.3878 0.0997368 64.8858 0.0997368 64.3838 0.0997368H63.6208C63.3597 0.0997368 63.2392 0.0997344 63.179 0.255156C63.0585 0.604856 63.8617 0.740852 64.0826 0.779708C64.5244 0.876846 64.9661 0.915699 65.3677 1.1294C66.3918 1.67338 66.5324 3.03333 66.5324 4.17956C66.5324 12.9026 66.5525 21.6257 66.5726 30.3682C66.5726 31.9224 66.2513 36.8764 64.685 37.265C63.9421 37.4398 62.8176 37.401 62.7573 38.1392H75.1468C74.6649 37.1873 73.1388 37.4981 72.2352 36.8959C71.4119 36.3519 71.3115 32.2721 71.3115 31.3007C71.2914 27.7843 71.2512 24.2873 71.2312 20.7709C71.2312 20.4989 71.2312 20.188 71.3717 19.9549C71.5524 19.644 71.934 19.4886 72.2954 19.4303C73.6609 19.1778 75.0665 19.7412 76.1307 20.6154C77.195 21.4897 77.958 22.6359 78.7211 23.7433C82.5965 29.4162 86.8937 34.9531 92.4961 39.0524C98.0985 43.1516 105.187 45.7161 112.155 44.8224C115.387 44.395 119.484 43.1322 121.592 40.7231C120.97 41.0728 118.761 42.8602 114.986 43.6762H115.006ZM72.5364 18.8669C71.5725 18.9446 71.191 18.5949 71.2111 17.6236C71.2512 15.0008 71.2111 12.3975 71.2111 9.77475H71.2512C71.2512 7.30743 71.2914 4.85953 71.2512 2.39221C71.2312 1.2654 71.5524 0.74085 72.7974 0.837988C74.3034 0.954555 75.8295 0.837993 77.3355 1.01284C81.0504 1.42083 83.5403 3.67444 84.3435 7.22972C84.7652 9.09478 84.7451 10.9793 84.2431 12.8249C83.2994 16.3219 80.6488 17.915 77.2351 18.4978C75.709 18.7698 74.1227 18.7309 72.5565 18.8475H72.5364V18.8669Z" fill="black"/>
<path d="M94.136 18.4002C94.136 9.18044 99.0321 0 109.048 0C119.064 0 123.553 9.12147 123.553 18.3412C123.553 27.561 118.657 37.1739 109.048 37.1739C99.4385 37.1739 94.136 27.7576 94.136 18.4002ZM120.161 19.1472C120.161 9.94711 116.28 0.550431 109.028 0.550431C101.775 0.550431 97.9351 9.94711 97.9351 19.1472C97.9351 28.3473 101.45 36.5645 109.028 36.5645C116.605 36.5645 120.161 27.9738 120.161 19.1472Z" fill="black"/>
</svg>
